<mxfile host="app.diagrams.net" modified="2021-08-31T03:36:54.693Z" agent="5.0 (Macintosh; Intel Mac OS X 10_15_7) AppleWebKit/537.36 (KHTML, like Gecko) Chrome/92.0.4515.159 Safari/537.36" etag="MQkkDWKEpCSf02XyCQ4E" version="15.0.2" type="github" pages="3">
  <diagram id="6RgydICrqF_Up7Ot6GvI" name="技术架构图">
    <mxGraphModel dx="1047" dy="841" grid="1" gridSize="10" guides="1" tooltips="1" connect="1" arrows="1" fold="1" page="1" pageScale="1" pageWidth="850" pageHeight="1100" math="0" shadow="0">
      <root>
        <mxCell id="0" />
        <mxCell id="1" parent="0" />
        <mxCell id="YqAz-h-w6HjdcNSitB7i-6" value="" style="rounded=0;whiteSpace=wrap;html=1;" vertex="1" parent="1">
          <mxGeometry x="130" y="170" width="160" height="220" as="geometry" />
        </mxCell>
        <mxCell id="YqAz-h-w6HjdcNSitB7i-1" value="前端应用(Node.js+react.js)" style="rounded=0;whiteSpace=wrap;html=1;" vertex="1" parent="1">
          <mxGeometry x="150" y="280" width="120" height="40" as="geometry" />
        </mxCell>
        <mxCell id="YqAz-h-w6HjdcNSitB7i-2" value="后端API(FastApi)" style="rounded=0;whiteSpace=wrap;html=1;" vertex="1" parent="1">
          <mxGeometry x="150" y="340" width="120" height="40" as="geometry" />
        </mxCell>
        <mxCell id="YqAz-h-w6HjdcNSitB7i-3" value="" style="endArrow=classic;html=1;entryX=0.5;entryY=1;entryDx=0;entryDy=0;exitX=0.5;exitY=0;exitDx=0;exitDy=0;" edge="1" parent="1" source="YqAz-h-w6HjdcNSitB7i-2" target="YqAz-h-w6HjdcNSitB7i-1">
          <mxGeometry width="50" height="50" relative="1" as="geometry">
            <mxPoint x="400" y="450" as="sourcePoint" />
            <mxPoint x="450" y="400" as="targetPoint" />
          </mxGeometry>
        </mxCell>
        <mxCell id="YqAz-h-w6HjdcNSitB7i-4" value="图数据库(Neo4j)" style="rounded=0;whiteSpace=wrap;html=1;" vertex="1" parent="1">
          <mxGeometry x="130" y="420" width="370" height="60" as="geometry" />
        </mxCell>
        <mxCell id="YqAz-h-w6HjdcNSitB7i-8" value="&lt;font style=&quot;font-size: 15px&quot;&gt;在线服务&lt;/font&gt;" style="text;html=1;strokeColor=none;fillColor=none;align=center;verticalAlign=middle;whiteSpace=wrap;rounded=0;" vertex="1" parent="1">
          <mxGeometry x="170" y="180" width="80" height="20" as="geometry" />
        </mxCell>
        <mxCell id="YqAz-h-w6HjdcNSitB7i-9" value="" style="rounded=0;whiteSpace=wrap;html=1;" vertex="1" parent="1">
          <mxGeometry x="330" y="170" width="330" height="220" as="geometry" />
        </mxCell>
        <mxCell id="YqAz-h-w6HjdcNSitB7i-10" value="ETL&lt;br&gt;(AirFlow)&lt;br&gt;&lt;br&gt;&lt;br&gt;&lt;br&gt;" style="rounded=0;whiteSpace=wrap;html=1;" vertex="1" parent="1">
          <mxGeometry x="350" y="220" width="290" height="100" as="geometry" />
        </mxCell>
        <mxCell id="YqAz-h-w6HjdcNSitB7i-13" value="&lt;font style=&quot;font-size: 15px&quot;&gt;离线服务&lt;/font&gt;" style="text;html=1;strokeColor=none;fillColor=none;align=center;verticalAlign=middle;whiteSpace=wrap;rounded=0;" vertex="1" parent="1">
          <mxGeometry x="455" y="180" width="80" height="20" as="geometry" />
        </mxCell>
        <mxCell id="YqAz-h-w6HjdcNSitB7i-19" value="数据拉取" style="rounded=0;whiteSpace=wrap;html=1;" vertex="1" parent="1">
          <mxGeometry x="381" y="270" width="70" height="40" as="geometry" />
        </mxCell>
        <mxCell id="YqAz-h-w6HjdcNSitB7i-20" value="模型训练" style="rounded=0;whiteSpace=wrap;html=1;" vertex="1" parent="1">
          <mxGeometry x="461" y="270" width="70" height="40" as="geometry" />
        </mxCell>
        <mxCell id="YqAz-h-w6HjdcNSitB7i-21" value="风险标签" style="rounded=0;whiteSpace=wrap;html=1;" vertex="1" parent="1">
          <mxGeometry x="541" y="270" width="70" height="40" as="geometry" />
        </mxCell>
        <mxCell id="YqAz-h-w6HjdcNSitB7i-24" value="" style="edgeStyle=elbowEdgeStyle;elbow=vertical;endArrow=classic;html=1;entryX=0.5;entryY=1;entryDx=0;entryDy=0;exitX=0.25;exitY=0;exitDx=0;exitDy=0;" edge="1" parent="1" source="YqAz-h-w6HjdcNSitB7i-4" target="YqAz-h-w6HjdcNSitB7i-2">
          <mxGeometry width="50" height="50" relative="1" as="geometry">
            <mxPoint x="400" y="400" as="sourcePoint" />
            <mxPoint x="450" y="350" as="targetPoint" />
          </mxGeometry>
        </mxCell>
        <mxCell id="YqAz-h-w6HjdcNSitB7i-25" value="" style="edgeStyle=elbowEdgeStyle;elbow=vertical;endArrow=classic;html=1;exitX=0.5;exitY=1;exitDx=0;exitDy=0;entryX=0.75;entryY=0;entryDx=0;entryDy=0;" edge="1" parent="1" source="YqAz-h-w6HjdcNSitB7i-10" target="YqAz-h-w6HjdcNSitB7i-4">
          <mxGeometry width="50" height="50" relative="1" as="geometry">
            <mxPoint x="255" y="430" as="sourcePoint" />
            <mxPoint x="416" y="430" as="targetPoint" />
          </mxGeometry>
        </mxCell>
        <mxCell id="YqAz-h-w6HjdcNSitB7i-26" value="核心镜像库(Oracle)" style="rounded=0;whiteSpace=wrap;html=1;" vertex="1" parent="1">
          <mxGeometry x="510" y="420" width="150" height="60" as="geometry" />
        </mxCell>
        <mxCell id="YqAz-h-w6HjdcNSitB7i-27" value="" style="edgeStyle=elbowEdgeStyle;elbow=vertical;endArrow=none;html=1;exitX=0.5;exitY=1;exitDx=0;exitDy=0;entryX=0.5;entryY=0;entryDx=0;entryDy=0;startArrow=classic;startFill=1;endFill=0;" edge="1" parent="1" source="YqAz-h-w6HjdcNSitB7i-10" target="YqAz-h-w6HjdcNSitB7i-26">
          <mxGeometry width="50" height="50" relative="1" as="geometry">
            <mxPoint x="505" y="330" as="sourcePoint" />
            <mxPoint x="417.5" y="430" as="targetPoint" />
          </mxGeometry>
        </mxCell>
        <mxCell id="YqAz-h-w6HjdcNSitB7i-28" value="负载均衡&lt;br&gt;(Nginx)" style="rounded=0;whiteSpace=wrap;html=1;" vertex="1" parent="1">
          <mxGeometry x="150" y="220" width="120" height="40" as="geometry" />
        </mxCell>
      </root>
    </mxGraphModel>
  </diagram>
  <diagram id="1FFrUQSaYlRMK2MxnAn0" name="应用部署拓扑图">
    <mxGraphModel dx="1047" dy="841" grid="1" gridSize="10" guides="1" tooltips="1" connect="1" arrows="1" fold="1" page="1" pageScale="1" pageWidth="850" pageHeight="1100" math="0" shadow="0">
      <root>
        <mxCell id="J6lK3gyfPiSJ5bxAy8dW-0" />
        <mxCell id="J6lK3gyfPiSJ5bxAy8dW-1" parent="J6lK3gyfPiSJ5bxAy8dW-0" />
      </root>
    </mxGraphModel>
  </diagram>
  <diagram id="UL5NDFYmmdDWCWEXs-V5" name="数据流向图">
    <mxGraphModel dx="1047" dy="841" grid="1" gridSize="10" guides="1" tooltips="1" connect="1" arrows="1" fold="1" page="1" pageScale="1" pageWidth="850" pageHeight="1100" math="0" shadow="0">
      <root>
        <mxCell id="qpv_vnCNV6HC7hxUtdJv-0" />
        <mxCell id="qpv_vnCNV6HC7hxUtdJv-1" parent="qpv_vnCNV6HC7hxUtdJv-0" />
        <mxCell id="jTl3cZE2TD3DU1JpzOqJ-14" value="核心镜像库(Oracle)" style="rounded=0;whiteSpace=wrap;html=1;" vertex="1" parent="qpv_vnCNV6HC7hxUtdJv-1">
          <mxGeometry x="60" y="520" width="130" height="60" as="geometry" />
        </mxCell>
        <mxCell id="jTl3cZE2TD3DU1JpzOqJ-17" value="ETL&lt;br&gt;(AirFlow)&lt;br&gt;&lt;br&gt;&lt;br&gt;&lt;br&gt;&lt;br&gt;&lt;br&gt;&lt;br&gt;&lt;br&gt;&lt;br&gt;&lt;br&gt;&lt;br&gt;&lt;br&gt;&lt;br&gt;&lt;br&gt;&lt;br&gt;&lt;br&gt;&lt;br&gt;&lt;br&gt;&lt;br&gt;" style="rounded=0;whiteSpace=wrap;html=1;" vertex="1" parent="qpv_vnCNV6HC7hxUtdJv-1">
          <mxGeometry x="230" y="420" width="130" height="290" as="geometry" />
        </mxCell>
        <mxCell id="jTl3cZE2TD3DU1JpzOqJ-18" value="数据拉取" style="rounded=0;whiteSpace=wrap;html=1;" vertex="1" parent="qpv_vnCNV6HC7hxUtdJv-1">
          <mxGeometry x="261" y="470" width="70" height="40" as="geometry" />
        </mxCell>
        <mxCell id="jTl3cZE2TD3DU1JpzOqJ-19" value="模型训练" style="rounded=0;whiteSpace=wrap;html=1;" vertex="1" parent="qpv_vnCNV6HC7hxUtdJv-1">
          <mxGeometry x="261" y="530" width="70" height="40" as="geometry" />
        </mxCell>
        <mxCell id="jTl3cZE2TD3DU1JpzOqJ-20" value="风险标签" style="rounded=0;whiteSpace=wrap;html=1;" vertex="1" parent="qpv_vnCNV6HC7hxUtdJv-1">
          <mxGeometry x="261" y="600" width="70" height="40" as="geometry" />
        </mxCell>
        <mxCell id="jTl3cZE2TD3DU1JpzOqJ-21" value="" style="edgeStyle=elbowEdgeStyle;elbow=horizontal;endArrow=classic;html=1;exitX=1;exitY=0.5;exitDx=0;exitDy=0;entryX=0;entryY=0.5;entryDx=0;entryDy=0;" edge="1" parent="qpv_vnCNV6HC7hxUtdJv-1" source="jTl3cZE2TD3DU1JpzOqJ-14" target="jTl3cZE2TD3DU1JpzOqJ-18">
          <mxGeometry width="50" height="50" relative="1" as="geometry">
            <mxPoint x="400" y="500" as="sourcePoint" />
            <mxPoint x="450" y="450" as="targetPoint" />
          </mxGeometry>
        </mxCell>
        <mxCell id="jTl3cZE2TD3DU1JpzOqJ-22" value="图数据库(Neo4j)" style="rounded=0;whiteSpace=wrap;html=1;" vertex="1" parent="qpv_vnCNV6HC7hxUtdJv-1">
          <mxGeometry x="405" y="520" width="130" height="60" as="geometry" />
        </mxCell>
        <mxCell id="jTl3cZE2TD3DU1JpzOqJ-24" value="" style="edgeStyle=elbowEdgeStyle;elbow=vertical;endArrow=classic;html=1;entryX=0.5;entryY=0;entryDx=0;entryDy=0;exitX=1;exitY=0.5;exitDx=0;exitDy=0;" edge="1" parent="qpv_vnCNV6HC7hxUtdJv-1" source="jTl3cZE2TD3DU1JpzOqJ-18" target="jTl3cZE2TD3DU1JpzOqJ-22">
          <mxGeometry width="50" height="50" relative="1" as="geometry">
            <mxPoint x="400" y="500" as="sourcePoint" />
            <mxPoint x="450" y="450" as="targetPoint" />
            <Array as="points">
              <mxPoint x="400" y="490" />
            </Array>
          </mxGeometry>
        </mxCell>
        <mxCell id="jTl3cZE2TD3DU1JpzOqJ-25" value="" style="endArrow=classic;html=1;entryX=1;entryY=0.5;entryDx=0;entryDy=0;exitX=0;exitY=0.5;exitDx=0;exitDy=0;" edge="1" parent="qpv_vnCNV6HC7hxUtdJv-1" source="jTl3cZE2TD3DU1JpzOqJ-22" target="jTl3cZE2TD3DU1JpzOqJ-19">
          <mxGeometry width="50" height="50" relative="1" as="geometry">
            <mxPoint x="400" y="500" as="sourcePoint" />
            <mxPoint x="450" y="450" as="targetPoint" />
          </mxGeometry>
        </mxCell>
        <mxCell id="jTl3cZE2TD3DU1JpzOqJ-26" value="" style="endArrow=classic;html=1;exitX=0.5;exitY=1;exitDx=0;exitDy=0;entryX=0.5;entryY=0;entryDx=0;entryDy=0;" edge="1" parent="qpv_vnCNV6HC7hxUtdJv-1" source="jTl3cZE2TD3DU1JpzOqJ-19" target="jTl3cZE2TD3DU1JpzOqJ-20">
          <mxGeometry width="50" height="50" relative="1" as="geometry">
            <mxPoint x="400" y="500" as="sourcePoint" />
            <mxPoint x="450" y="450" as="targetPoint" />
          </mxGeometry>
        </mxCell>
        <mxCell id="jTl3cZE2TD3DU1JpzOqJ-27" value="" style="edgeStyle=elbowEdgeStyle;elbow=vertical;endArrow=classic;html=1;entryX=1;entryY=0.5;entryDx=0;entryDy=0;exitX=0.5;exitY=1;exitDx=0;exitDy=0;" edge="1" parent="qpv_vnCNV6HC7hxUtdJv-1" source="jTl3cZE2TD3DU1JpzOqJ-22" target="jTl3cZE2TD3DU1JpzOqJ-20">
          <mxGeometry width="50" height="50" relative="1" as="geometry">
            <mxPoint x="341" y="500" as="sourcePoint" />
            <mxPoint x="480" y="530" as="targetPoint" />
            <Array as="points">
              <mxPoint x="390" y="620" />
            </Array>
          </mxGeometry>
        </mxCell>
        <mxCell id="jTl3cZE2TD3DU1JpzOqJ-28" value="" style="edgeStyle=elbowEdgeStyle;elbow=vertical;endArrow=classic;html=1;exitX=0.5;exitY=1;exitDx=0;exitDy=0;entryX=0.75;entryY=1;entryDx=0;entryDy=0;" edge="1" parent="qpv_vnCNV6HC7hxUtdJv-1" source="jTl3cZE2TD3DU1JpzOqJ-20" target="jTl3cZE2TD3DU1JpzOqJ-22">
          <mxGeometry width="50" height="50" relative="1" as="geometry">
            <mxPoint x="400" y="500" as="sourcePoint" />
            <mxPoint x="450" y="450" as="targetPoint" />
            <Array as="points">
              <mxPoint x="400" y="680" />
            </Array>
          </mxGeometry>
        </mxCell>
        <mxCell id="jTl3cZE2TD3DU1JpzOqJ-29" value="后端API" style="rounded=0;whiteSpace=wrap;html=1;" vertex="1" parent="qpv_vnCNV6HC7hxUtdJv-1">
          <mxGeometry x="580" y="530" width="70" height="40" as="geometry" />
        </mxCell>
        <mxCell id="jTl3cZE2TD3DU1JpzOqJ-30" value="" style="endArrow=classic;html=1;entryX=0;entryY=0.5;entryDx=0;entryDy=0;exitX=1;exitY=0.5;exitDx=0;exitDy=0;" edge="1" parent="qpv_vnCNV6HC7hxUtdJv-1" source="jTl3cZE2TD3DU1JpzOqJ-22" target="jTl3cZE2TD3DU1JpzOqJ-29">
          <mxGeometry width="50" height="50" relative="1" as="geometry">
            <mxPoint x="400" y="500" as="sourcePoint" />
            <mxPoint x="450" y="450" as="targetPoint" />
          </mxGeometry>
        </mxCell>
        <mxCell id="jTl3cZE2TD3DU1JpzOqJ-31" value="前端应用" style="rounded=0;whiteSpace=wrap;html=1;" vertex="1" parent="qpv_vnCNV6HC7hxUtdJv-1">
          <mxGeometry x="700" y="530" width="70" height="40" as="geometry" />
        </mxCell>
        <mxCell id="jTl3cZE2TD3DU1JpzOqJ-32" value="" style="endArrow=classic;html=1;entryX=0;entryY=0.5;entryDx=0;entryDy=0;exitX=1;exitY=0.5;exitDx=0;exitDy=0;" edge="1" parent="qpv_vnCNV6HC7hxUtdJv-1" source="jTl3cZE2TD3DU1JpzOqJ-29" target="jTl3cZE2TD3DU1JpzOqJ-31">
          <mxGeometry width="50" height="50" relative="1" as="geometry">
            <mxPoint x="545" y="560" as="sourcePoint" />
            <mxPoint x="590" y="560" as="targetPoint" />
          </mxGeometry>
        </mxCell>
      </root>
    </mxGraphModel>
  </diagram>
</mxfile>
